<svg xmlns="http://www.w3.org/2000/svg" width="1200" height="800" viewBox="0 0 1200 800">
<style>text{font-family:"Arial";font-size:14px;fill:#222} .title{font-size:18px;font-weight:bold}</style>
<rect x="60.0" y="60.0" width="510.0" height="310.0" fill="#f9f9f9" stroke="#ccc"/>
<text class="title" x="315.0" y="84.0" text-anchor="middle">常住人口(万人)</text>
<line x1="80.0" y1="350.0" x2="550.0" y2="350.0" stroke="#444" stroke-width="1" />
<line x1="80.0" y1="80.0" x2="80.0" y2="350.0" stroke="#444" stroke-width="1" />
<rect x="88.54545454545455" y="99.36219957863744" width="25.636363636363637" height="250.63780042136256" fill="#4a90e2" />
<text x="101.36363636363636" y="368.0" text-anchor="middle">2010</text>
<rect x="131.27272727272725" y="94.46846032798334" width="25.636363636363637" height="255.53153967201666" fill="#4a90e2" />
<text x="144.09090909090907" y="368.0" text-anchor="middle">2011</text>
<rect x="173.99999999999997" y="91.38475167683896" width="25.636363636363637" height="258.61524832316104" fill="#4a90e2" />
<text x="186.81818181818178" y="368.0" text-anchor="middle">2012</text>
<rect x="216.72727272727272" y="89.07149243977415" width="25.636363636363637" height="260.92850756022585" fill="#4a90e2" />
<text x="229.54545454545453" y="368.0" text-anchor="middle">2013</text>
<rect x="259.45454545454544" y="86.24799758412507" width="25.636363636363637" height="263.7520024158749" fill="#4a90e2" />
<text x="272.27272727272725" y="368.0" text-anchor="middle">2014</text>
<rect x="302.1818181818182" y="85.1644635176932" width="25.636363636363637" height="264.8355364823068" fill="#4a90e2" />
<text x="315.0" y="368.0" text-anchor="middle">2015</text>
<rect x="344.90909090909093" y="83.050903239962" width="25.636363636363637" height="266.949096760038" fill="#4a90e2" />
<text x="357.72727272727275" y="368.0" text-anchor="middle">2016</text>
<rect x="387.6363636363636" y="81.712251364238" width="25.636363636363637" height="268.287748635762" fill="#4a90e2" />
<text x="400.45454545454544" y="368.0" text-anchor="middle">2017</text>
<rect x="430.3636363636364" y="80.98957682081237" width="25.636363636363637" height="269.0104231791876" fill="#4a90e2" />
<text x="443.1818181818182" y="368.0" text-anchor="middle">2018</text>
<rect x="473.0909090909091" y="80.26021379549525" width="25.636363636363637" height="269.73978620450475" fill="#4a90e2" />
<text x="485.90909090909093" y="368.0" text-anchor="middle">2019</text>
<rect x="515.8181818181818" y="80.0" width="25.636363636363637" height="270.0" fill="#4a90e2" />
<text x="528.6363636363636" y="368.0" text-anchor="middle">2020</text>
<text x="80.0" y="72.0" text-anchor="start">最大值: 8477</text>
<rect x="630.0" y="60.0" width="510.0" height="310.0" fill="#f9f9f9" stroke="#ccc"/>
<text class="title" x="885.0" y="84.0" text-anchor="middle">GDP(亿元)</text>
<line x1="650.0" y1="350.0" x2="1120.0" y2="350.0" stroke="#444" stroke-width="1" />
<line x1="650.0" y1="80.0" x2="650.0" y2="350.0" stroke="#444" stroke-width="1" />
<rect x="658.5454545454545" y="224.0049630950146" width="25.636363636363637" height="125.99503690498538" fill="#4a90e2" />
<text x="671.3636363636364" y="368.0" text-anchor="middle">2010</text>
<rect x="701.2727272727273" y="210.09510873120672" width="25.636363636363637" height="139.90489126879328" fill="#4a90e2" />
<text x="714.0909090909091" y="368.0" text-anchor="middle">2011</text>
<rect x="744.0" y="195.76276291671272" width="25.636363636363637" height="154.23723708328728" fill="#4a90e2" />
<text x="756.8181818181819" y="368.0" text-anchor="middle">2012</text>
<rect x="786.7272727272727" y="180.7838776162513" width="25.636363636363637" height="169.2161223837487" fill="#4a90e2" />
<text x="799.5454545454546" y="368.0" text-anchor="middle">2013</text>
<rect x="829.4545454545454" y="166.23302483760264" width="25.636363636363637" height="183.76697516239736" fill="#4a90e2" />
<text x="842.2727272727273" y="368.0" text-anchor="middle">2014</text>
<rect x="872.1818181818181" y="150.42401401329548" width="25.636363636363637" height="199.57598598670452" fill="#4a90e2" />
<text x="885.0" y="368.0" text-anchor="middle">2015</text>
<rect x="914.9090909090909" y="134.85510562876217" width="25.636363636363637" height="215.14489437123783" fill="#4a90e2" />
<text x="927.7272727272727" y="368.0" text-anchor="middle">2016</text>
<rect x="957.6363636363635" y="119.3690458950779" width="25.636363636363637" height="230.6309541049221" fill="#4a90e2" />
<text x="970.4545454545454" y="368.0" text-anchor="middle">2017</text>
<rect x="1000.3636363636363" y="103.91642811173628" width="25.636363636363637" height="246.08357188826372" fill="#4a90e2" />
<text x="1013.1818181818181" y="368.0" text-anchor="middle">2018</text>
<rect x="1043.090909090909" y="89.52053674755615" width="25.636363636363637" height="260.47946325244385" fill="#4a90e2" />
<text x="1055.9090909090908" y="368.0" text-anchor="middle">2019</text>
<rect x="1085.8181818181818" y="80.0" width="25.636363636363637" height="270.0" fill="#4a90e2" />
<text x="1098.6363636363635" y="368.0" text-anchor="middle">2020</text>
<text x="650.0" y="72.0" text-anchor="start">最大值: 88683</text>
<rect x="60.0" y="430.0" width="510.0" height="310.0" fill="#f9f9f9" stroke="#ccc"/>
<text class="title" x="315.0" y="454.0" text-anchor="middle">能源消费量(万tce)</text>
<line x1="80.0" y1="720.0" x2="550.0" y2="720.0" stroke="#444" stroke-width="1" />
<line x1="80.0" y1="450.0" x2="80.0" y2="720.0" stroke="#444" stroke-width="1" />
<rect x="88.54545454545455" y="522.7891138190499" width="25.636363636363637" height="197.21088618095007" fill="#4a90e2" />
<text x="101.36363636363636" y="738.0" text-anchor="middle">2010</text>
<rect x="131.27272727272725" y="494.96840408751405" width="25.636363636363637" height="225.03159591248593" fill="#4a90e2" />
<text x="144.09090909090907" y="738.0" text-anchor="middle">2011</text>
<rect x="173.99999999999997" y="485.42432313994885" width="25.636363636363637" height="234.57567686005115" fill="#4a90e2" />
<text x="186.81818181818178" y="738.0" text-anchor="middle">2012</text>
<rect x="216.72727272727272" y="483.7161777443869" width="25.636363636363637" height="236.28382225561307" fill="#4a90e2" />
<text x="229.54545454545453" y="738.0" text-anchor="middle">2013</text>
<rect x="259.45454545454544" y="483.9892859993183" width="25.636363636363637" height="236.01071400068165" fill="#4a90e2" />
<text x="272.27272727272725" y="738.0" text-anchor="middle">2014</text>
<rect x="302.1818181818182" y="476.7582695364026" width="25.636363636363637" height="243.24173046359738" fill="#4a90e2" />
<text x="315.0" y="738.0" text-anchor="middle">2015</text>
<rect x="344.90909090909093" y="469.09774770878" width="25.636363636363637" height="250.90225229122" fill="#4a90e2" />
<text x="357.72727272727275" y="738.0" text-anchor="middle">2016</text>
<rect x="387.6363636363636" y="463.0496327811692" width="25.636363636363637" height="256.9503672188308" fill="#4a90e2" />
<text x="400.45454545454544" y="738.0" text-anchor="middle">2017</text>
<rect x="430.3636363636364" y="457.157930966844" width="25.636363636363637" height="262.842069033156" fill="#4a90e2" />
<text x="443.1818181818182" y="738.0" text-anchor="middle">2018</text>
<rect x="473.0909090909091" y="450.0" width="25.636363636363637" height="270.0" fill="#4a90e2" />
<text x="485.90909090909093" y="738.0" text-anchor="middle">2019</text>
<rect x="515.8181818181818" y="456.6144466287674" width="25.636363636363637" height="263.3855533712326" fill="#4a90e2" />
<text x="528.6363636363636" y="738.0" text-anchor="middle">2020</text>
<text x="80.0" y="442.0" text-anchor="start">最大值: 32228</text>
<rect x="630.0" y="430.0" width="510.0" height="310.0" fill="#f9f9f9" stroke="#ccc"/>
<text class="title" x="885.0" y="454.0" text-anchor="middle">碳排放量(万tCO2)</text>
<line x1="650.0" y1="720.0" x2="1120.0" y2="720.0" stroke="#444" stroke-width="1" />
<line x1="650.0" y1="450.0" x2="650.0" y2="720.0" stroke="#444" stroke-width="1" />
<rect x="658.5454545454545" y="514.6293186819308" width="25.636363636363637" height="205.3706813180692" fill="#4a90e2" />
<text x="671.3636363636364" y="738.0" text-anchor="middle">2010</text>
<rect x="701.2727272727273" y="482.44164664532525" width="25.636363636363637" height="237.55835335467475" fill="#4a90e2" />
<text x="714.0909090909091" y="738.0" text-anchor="middle">2011</text>
<rect x="744.0" y="474.02688169246926" width="25.636363636363637" height="245.97311830753077" fill="#4a90e2" />
<text x="756.8181818181819" y="738.0" text-anchor="middle">2012</text>
<rect x="786.7272727272727" y="476.7716083211269" width="25.636363636363637" height="243.22839167887307" fill="#4a90e2" />
<text x="799.5454545454546" y="738.0" text-anchor="middle">2013</text>
<rect x="829.4545454545454" y="483.68081556290116" width="25.636363636363637" height="236.31918443709884" fill="#4a90e2" />
<text x="842.2727272727273" y="738.0" text-anchor="middle">2014</text>
<rect x="872.1818181818181" y="479.2296618934987" width="25.636363636363637" height="240.77033810650127" fill="#4a90e2" />
<text x="885.0" y="738.0" text-anchor="middle">2015</text>
<rect x="914.9090909090909" y="470.29730363711815" width="25.636363636363637" height="249.70269636288182" fill="#4a90e2" />
<text x="927.7272727272727" y="738.0" text-anchor="middle">2016</text>
<rect x="957.6363636363635" y="463.281209494094" width="25.636363636363637" height="256.718790505906" fill="#4a90e2" />
<text x="970.4545454545454" y="738.0" text-anchor="middle">2017</text>
<rect x="1000.3636363636363" y="459.4534858802082" width="25.636363636363637" height="260.5465141197918" fill="#4a90e2" />
<text x="1013.1818181818181" y="738.0" text-anchor="middle">2018</text>
<rect x="1043.090909090909" y="450.0" width="25.636363636363637" height="270.0" fill="#4a90e2" />
<text x="1055.9090909090908" y="738.0" text-anchor="middle">2019</text>
<rect x="1085.8181818181818" y="455.3310580703796" width="25.636363636363637" height="264.6689419296204" fill="#4a90e2" />
<text x="1098.6363636363635" y="738.0" text-anchor="middle">2020</text>
<text x="650.0" y="442.0" text-anchor="start">最大值: 74096</text>
</svg>